<svg width="48" height="48" viewBox="0 0 48 48" fill="none" xmlns="http://www.w3.org/2000/svg">
<path d="M8.00043 38L6.14043 37.26C6.00753 37.5944 5.96731 37.9585 6.02401 38.3138C6.0807 38.6691 6.23222 39.0026 6.46258 39.279C6.69294 39.5555 6.99362 39.7646 7.33291 39.8845C7.67221 40.0043 8.03755 40.0304 8.39043 39.96L8.00043 38ZM17.4124 36.128L18.3604 34.366L17.7264 34.026L17.0224 34.166L17.4124 36.128ZM11.2484 29.834L13.1084 30.574L13.4344 29.746L13.0424 28.948L11.2484 29.834ZM38.0004 24C38.0004 30.492 32.2944 36 24.9404 36V40C34.2224 40 42.0004 32.972 42.0004 24H38.0004ZM11.8824 24C11.8824 17.508 17.5904 12 24.9424 12V8C15.6604 8 7.88043 15.028 7.88043 24H11.8824ZM24.9424 12C32.2944 12 38.0004 17.508 38.0004 24H42.0004C42.0004 15.028 34.2244 8 24.9424 8V12ZM24.9404 36C22.5304 36 20.2864 35.4 18.3604 34.366L16.4644 37.888C19.0711 39.2854 21.9829 40.0113 24.9404 40V36ZM8.39043 39.96L17.8024 38.088L17.0224 34.166L7.61043 36.038L8.39043 39.962V39.96ZM13.0424 28.948C12.281 27.4095 11.8855 25.7166 11.8824 24H7.88043C7.88043 26.4 8.44443 28.676 9.45243 30.72L13.0424 28.948ZM9.39043 29.094L6.14043 37.262L9.85643 38.738L13.1044 30.572L9.38843 29.094H9.39043Z" fill="black"/>
<path d="M18 26C19.1046 26 20 25.1046 20 24C20 22.8954 19.1046 22 18 22C16.8954 22 16 22.8954 16 24C16 25.1046 16.8954 26 18 26Z" fill="black"/>
<path d="M25 26C26.1046 26 27 25.1046 27 24C27 22.8954 26.1046 22 25 22C23.8954 22 23 22.8954 23 24C23 25.1046 23.8954 26 25 26Z" fill="black"/>
<path d="M32 26C33.1046 26 34 25.1046 34 24C34 22.8954 33.1046 22 32 22C30.8954 22 30 22.8954 30 24C30 25.1046 30.8954 26 32 26Z" fill="black"/>
</svg>
