<svg width="48" height="48" viewBox="0 0 48 48" fill="none" xmlns="http://www.w3.org/2000/svg">
<path d="M24 16C24 16 24 16 25.52 14C27.28 11.68 29.88 10 33 10C37.98 10 42 14.02 42 19C42 20.86 41.44 22.58 40.48 24C38.86 26.42 24 42 24 42C24 42 9.14 26.42 7.52 24C6.56 22.58 6 20.86 6 19C6 14.02 10.02 10 15 10C18.12 10 20.74 11.68 22.48 14C24 16 24 16 24 16Z" fill="black"/>
<path d="M24 16C24 16 24 16 22.48 14C20.72 11.68 18.12 10 15 10C10.02 10 6 14.02 6 19C6 20.86 6.56 22.58 7.52 24C9.14 26.42 24 42 24 42M24 16C24 16 24 16 25.52 14C27.28 11.68 29.88 10 33 10C37.98 10 42 14.02 42 19C42 20.86 41.44 22.58 40.48 24C38.86 26.42 24 42 24 42" stroke="black" stroke-width="4" stroke-linecap="round" stroke-linejoin="round"/>
</svg>
