<svg width="48" height="48" viewBox="0 0 48 48" fill="none" xmlns="http://www.w3.org/2000/svg">
<path d="M23.9997 34.5499L15.6997 39.5499C15.333 39.7832 14.9497 39.8832 14.5497 39.8499C14.1497 39.8166 13.7997 39.6832 13.4997 39.4499C13.1997 39.2166 12.9663 38.9252 12.7997 38.5759C12.633 38.2266 12.5997 37.8346 12.6997 37.3999L14.8997 27.9499L7.54968 21.5999C7.21635 21.2999 7.00835 20.9579 6.92568 20.5739C6.84301 20.1899 6.86768 19.8152 6.99968 19.4499C7.13168 19.0846 7.33168 18.7846 7.59968 18.5499C7.86768 18.3152 8.23435 18.1652 8.69968 18.0999L18.3997 17.2499L22.1497 8.3499C22.3163 7.9499 22.575 7.6499 22.9257 7.4499C23.2763 7.2499 23.6343 7.1499 23.9997 7.1499C24.365 7.1499 24.723 7.2499 25.0737 7.4499C25.4243 7.6499 25.683 7.9499 25.8497 8.3499L29.5997 17.2499L39.2997 18.0999C39.7663 18.1666 40.133 18.3166 40.3997 18.5499C40.6663 18.7832 40.8663 19.0832 40.9997 19.4499C41.133 19.8166 41.1583 20.1919 41.0757 20.5759C40.993 20.9599 40.7843 21.3012 40.4497 21.5999L33.0997 27.9499L35.2997 37.3999C35.3997 37.8332 35.3663 38.2252 35.1997 38.5759C35.033 38.9266 34.7997 39.2179 34.4997 39.4499C34.1997 39.6819 33.8497 39.8152 33.4497 39.8499C33.0497 39.8846 32.6663 39.7846 32.2997 39.5499L23.9997 34.5499Z" fill="black"/>
</svg>
